<svg width="201" height="40" viewBox="0 0 201 40" fill="none" xmlns="http://www.w3.org/2000/svg">
<path fill-rule="evenodd" clip-rule="evenodd" d="M189.656 18.3863C190.723 17.3105 191.692 16.8215 193.438 16.8215C194.504 16.8215 195.183 17.4083 195.183 19.1687C195.183 24.4499 195.183 29.7311 195.183 35.0122C195.183 35.6968 195.764 36.1858 196.346 36.1858H199.837C200.515 36.1858 201 35.599 201 35.0122C201 29.7311 201 24.5477 201 19.2665C201 15.3545 200.03 12.2249 195.377 12.2249C192.468 12.2249 191.014 13.3985 189.656 14.5721C189.656 11.0513 189.656 7.53056 189.656 4.00978C189.656 3.32518 189.075 2.83619 188.493 2.83619H185.002C184.324 2.83619 183.839 3.42298 183.839 4.00978V5.37897V28.5575V32.0782C183.839 32.7628 184.421 33.2518 185.002 33.2518H188.493C189.171 33.2518 189.656 32.665 189.656 32.0782V18.3863ZM125.957 31.9804H129.447C130.126 31.9804 130.611 31.3936 130.611 30.8068C130.611 26.9927 130.611 23.1785 130.611 19.3643C130.611 19.1687 130.611 18.4841 130.611 18.2885C131.58 17.3105 132.841 16.9193 134.489 16.9193C135.555 16.9193 136.234 17.5061 136.234 19.2665C136.234 23.0807 136.234 26.9927 136.234 30.8068C136.234 31.4914 136.816 31.9804 137.398 31.9804H140.888C141.567 31.9804 142.051 31.3936 142.051 30.8068C142.051 26.9927 142.051 23.1785 142.051 19.3643C142.051 15.3545 140.985 12.3227 136.428 12.3227C133.519 12.3227 131.483 13.4963 129.835 14.6699C129.059 13.2029 127.508 12.3227 124.987 12.3227C122.079 12.3227 120.818 13.3985 119.364 14.6699L118.297 12.6161H113.45C113.45 18.6797 113.45 24.7433 113.45 30.8068C113.45 31.4914 114.031 31.9804 114.613 31.9804H118.104C118.782 31.9804 119.267 31.3936 119.267 30.8068C119.267 26.6993 119.267 22.5917 119.267 18.4841C120.333 17.4083 121.206 16.9193 122.951 16.9193C124.018 16.9193 124.696 17.5061 124.696 19.2665C124.696 23.0807 124.696 26.9927 124.696 30.8068C124.696 31.3936 125.278 31.9804 125.957 31.9804ZM23.0876 32.2738C23.1846 32.9584 23.7663 33.4474 24.445 33.3496L27.8384 32.9584C28.5171 32.8606 29.0019 32.2738 28.9049 31.5892C28.0323 22.7873 27.1597 13.9853 26.2871 5.18337H18.046L14.5556 22.1027L11.0652 5.28117H2.82405C1.8545 15.0611 0.981903 24.8411 0.0123537 34.621C-0.0846013 35.3056 0.400174 35.8924 1.07886 35.9902L4.47228 36.3814C5.15097 36.2836 5.7327 35.7946 5.82965 35.2078C6.50834 28.6553 7.09007 22.2005 7.76875 15.6479L11.2591 31.9804H17.949L21.3424 15.6479C21.9242 21.1247 22.5059 26.6993 23.0876 32.2738ZM51.3015 0H54.7919C55.4706 0 55.9554 0.586797 55.9554 1.17359C55.9554 8.70416 55.9554 16.3325 55.9554 23.9609C55.9554 26.6015 56.5371 27.1883 57.5066 27.5795C57.5066 27.5795 59.3488 28.3619 59.6397 28.3619V31.9804H55.0828C51.7863 31.9804 50.0411 30.22 50.0411 25.1345C50.0411 17.2127 50.0411 9.19315 50.0411 1.27139C50.1381 0.586797 50.7198 0 51.3015 0ZM62.8392 4.59658H66.3296C67.0082 4.59658 67.493 5.18337 67.493 5.77017C67.493 9.48655 67.493 13.1051 67.493 16.8215V23.8631C67.493 26.5037 68.0747 27.0905 69.0443 27.4817C69.0443 27.4817 70.8864 28.2641 71.1773 28.2641V31.8826H66.6204C63.3239 31.8826 61.5788 30.1222 61.5788 25.0367V15.9413V5.86797C61.6757 5.18337 62.1605 4.59658 62.8392 4.59658ZM30.844 26.8949C30.844 29.2421 32.3953 31.9804 36.4674 32.176C39.2791 32.2738 41.2182 30.5134 41.5091 29.9267L42.6725 31.9804H47.4233V18.6797C47.4233 13.5941 44.5147 12.2249 39.9578 12.2249C36.3705 12.2249 33.9466 12.5183 31.4258 13.5941V17.2127C32.2984 17.1149 37.7278 16.8215 39.0852 16.8215C40.6365 16.8215 41.5091 17.0171 41.5091 18.9731V19.7555H36.7583C32.2014 19.7555 30.844 22.4939 30.844 25.2323V26.8949ZM36.7583 26.0147V25.4279C36.7583 24.7433 36.8552 23.7653 38.1157 23.5697L41.5091 23.2763V26.2103C41.5091 26.2103 40.2487 27.5795 38.4065 27.5795C37.6309 27.5795 36.7583 27.5795 36.7583 26.0147ZM73.2133 14.3765C73.2133 16.4303 73.6012 21.7115 80.1941 21.7115H83.8784C85.6236 21.7115 86.1084 22.4939 86.1084 23.8631V24.9389C86.1084 26.6015 84.8479 26.8949 83.3936 26.8949C80.0002 26.8949 75.5403 26.6015 74.0859 26.5037V31.198C77.1885 32.176 79.2246 32.3716 84.751 32.3716C88.3383 32.3716 92.1196 31.1002 92.1196 24.7433V23.1785C92.1196 20.2445 90.9561 15.8435 85.6236 15.8435H81.7454C79.7093 15.8435 79.2246 15.3545 79.2246 13.5941V12.7139C79.2246 10.6601 80.2911 10.5623 82.3271 10.5623C84.0723 10.5623 88.8231 10.6601 91.15 10.9535V6.16137C88.8231 5.37897 84.9449 4.88998 80.485 4.98777C76.4129 5.08557 73.3103 6.74817 73.3103 12.0293V14.3765H73.2133ZM94.1556 26.8949C94.1556 29.2421 95.7069 31.9804 99.779 32.176C102.591 32.2738 104.53 30.5134 104.821 29.9267L105.984 31.9804H110.735V18.6797C110.735 13.5941 107.826 12.2249 103.269 12.2249C99.6821 12.2249 97.2582 12.5183 94.7374 13.5941V17.2127C95.6099 17.1149 101.039 16.8215 102.397 16.8215C103.948 16.8215 104.821 17.0171 104.821 18.9731V19.7555H100.07C95.513 19.7555 94.1556 22.4939 94.1556 25.2323V26.8949ZM100.07 26.0147V25.4279C100.07 24.7433 100.167 23.7653 101.427 23.5697L104.821 23.2763V26.2103C104.821 26.2103 103.56 27.5795 101.718 27.5795C100.846 27.5795 100.07 27.5795 100.07 26.0147ZM150.68 31.1002C152.232 31.8826 154.462 32.2738 156.013 32.2738C161.248 32.2738 162.218 28.0685 162.218 22.2005C162.218 15.8435 160.473 12.4205 156.013 12.4205C153.783 12.4205 151.941 13.3985 150.68 14.4743L149.711 12.6161H144.766C144.766 21.3203 144.766 30.1222 144.766 38.8264C144.766 39.511 145.348 40 145.93 40H149.42C150.099 40 150.583 39.4132 150.583 38.8264C150.68 36.2836 150.68 33.643 150.68 31.1002ZM150.68 27.1883V18.3863C151.456 17.7017 152.716 17.4083 154.268 17.4083C155.625 17.4083 156.401 18.3863 156.401 22.4939C156.401 27.0905 155.625 27.7751 154.268 27.7751C152.91 27.7751 151.553 27.5795 150.68 27.1883ZM164.448 26.8949C164.448 29.2421 165.999 31.9804 170.071 32.176C172.883 32.2738 174.822 30.5134 175.113 29.9267L176.276 31.9804H181.027V18.6797C181.027 13.5941 178.119 12.2249 173.562 12.2249C169.974 12.2249 167.551 12.5183 165.03 13.5941V17.2127C165.902 17.1149 171.332 16.8215 172.689 16.8215C174.24 16.8215 175.113 17.0171 175.113 18.9731V19.7555H170.362C165.805 19.7555 164.448 22.4939 164.448 25.2323V26.8949ZM170.362 26.0147V25.4279C170.362 24.7433 170.459 23.7653 171.72 23.5697L175.113 23.2763V26.2103C175.113 26.2103 173.853 27.5795 172.01 27.5795C171.235 27.5795 170.362 27.5795 170.362 26.0147Z" fill="white"/>
</svg>
