<svg width="161" height="32" viewBox="0 0 161 32" fill="none" xmlns="http://www.w3.org/2000/svg">
<path fill-rule="evenodd" clip-rule="evenodd" d="M151.914 14.709C152.768 13.8484 153.545 13.4572 154.942 13.4572C155.797 13.4572 156.34 13.9267 156.34 15.335C156.34 19.5599 156.34 23.7848 156.34 28.0098C156.34 28.5575 156.806 28.9487 157.272 28.9487H160.068C160.612 28.9487 161 28.4792 161 28.0098C161 23.7848 161 19.6381 161 15.4132C161 12.2836 160.223 9.77995 156.496 9.77995C154.166 9.77995 153.001 10.7188 151.914 11.6577C151.914 8.84108 151.914 6.02445 151.914 3.20782C151.914 2.66015 151.448 2.26895 150.982 2.26895H148.186C147.642 2.26895 147.254 2.73839 147.254 3.20782V4.30318V22.846V25.6626C147.254 26.2103 147.72 26.6015 148.186 26.6015H150.982C151.525 26.6015 151.914 26.132 151.914 25.6626V14.709ZM100.891 25.5844H103.687C104.23 25.5844 104.619 25.1149 104.619 24.6455C104.619 21.5941 104.619 18.5428 104.619 15.4914C104.619 15.335 104.619 14.7873 104.619 14.6308C105.395 13.8484 106.405 13.5355 107.725 13.5355C108.579 13.5355 109.123 14.0049 109.123 15.4132C109.123 18.4645 109.123 21.5941 109.123 24.6455C109.123 25.1932 109.589 25.5844 110.055 25.5844H112.851C113.394 25.5844 113.782 25.1149 113.782 24.6455C113.782 21.5941 113.782 18.5428 113.782 15.4914C113.782 12.2836 112.928 9.85819 109.278 9.85819C106.948 9.85819 105.317 10.7971 103.997 11.7359C103.376 10.5623 102.133 9.85819 100.114 9.85819C97.7844 9.85819 96.7748 10.7188 95.6099 11.7359L94.7556 10.0929H90.8726C90.8726 14.9438 90.8726 19.7946 90.8726 24.6455C90.8726 25.1932 91.3386 25.5844 91.8045 25.5844H94.6003C95.1439 25.5844 95.5322 25.1149 95.5322 24.6455C95.5322 21.3594 95.5322 18.0733 95.5322 14.7873C96.3865 13.9267 97.0855 13.5355 98.4833 13.5355C99.3376 13.5355 99.8812 14.0049 99.8812 15.4132C99.8812 18.4645 99.8812 21.5941 99.8812 24.6455C99.8812 25.1149 100.347 25.5844 100.891 25.5844ZM18.4931 25.8191C18.5707 26.3667 19.0367 26.7579 19.5803 26.6797L22.2984 26.3667C22.8421 26.2885 23.2304 25.8191 23.1527 25.2714C22.4538 18.2298 21.7548 11.1883 21.0559 4.1467H14.4547L11.659 17.6822L8.86319 4.22494H2.26205C1.48544 12.0489 0.7865 19.8729 0.00989526 27.6968C-0.0677652 28.2445 0.320537 28.7139 0.86416 28.7922L3.58228 29.1051C4.1259 29.0269 4.59186 28.6357 4.66952 28.1663C5.21315 22.9242 5.67911 17.7604 6.22273 12.5183L9.01851 25.5844H14.3771L17.0952 12.5183C17.5612 16.8998 18.0271 21.3594 18.4931 25.8191ZM41.0923 0H43.888C44.4317 0 44.82 0.469438 44.82 0.938875C44.82 6.96333 44.82 13.066 44.82 19.1687C44.82 21.2812 45.2859 21.7506 46.0625 22.0636C46.0625 22.0636 47.5381 22.6895 47.7711 22.6895V25.5844H44.121C41.4806 25.5844 40.0827 24.176 40.0827 20.1076C40.0827 13.7702 40.0827 7.35452 40.0827 1.01711C40.1603 0.469438 40.6263 0 41.0923 0ZM50.3339 3.67726H53.1296C53.6733 3.67726 54.0616 4.1467 54.0616 4.61614C54.0616 7.58924 54.0616 10.4841 54.0616 13.4572V19.0905C54.0616 21.2029 54.5275 21.6724 55.3041 21.9853C55.3041 21.9853 56.7797 22.6112 57.0127 22.6112V25.5061H53.3626C50.7222 25.5061 49.3243 24.0978 49.3243 20.0293V12.7531V4.69438C49.4019 4.1467 49.7902 3.67726 50.3339 3.67726ZM24.7059 21.5159C24.7059 23.3936 25.9485 25.5844 29.2102 25.7408C31.4624 25.8191 33.0156 24.4108 33.2486 23.9413L34.1805 25.5844H37.9859V14.9438C37.9859 10.8753 35.656 9.77995 32.006 9.77995C29.1326 9.77995 27.1911 10.0147 25.1719 10.8753V13.7702C25.8708 13.6919 30.2198 13.4572 31.3071 13.4572C32.5496 13.4572 33.2486 13.6137 33.2486 15.1785V15.8044H29.4432C25.7932 15.8044 24.7059 17.9951 24.7059 20.1858V21.5159ZM29.4432 20.8117V20.3423C29.4432 19.7946 29.5209 19.0122 30.5305 18.8557L33.2486 18.621V20.9682C33.2486 20.9682 32.239 22.0636 30.7634 22.0636C30.1421 22.0636 29.4432 22.0636 29.4432 20.8117ZM58.6435 11.5012C58.6435 13.1443 58.9542 17.3692 64.2351 17.3692H67.1862C68.5841 17.3692 68.9724 17.9951 68.9724 19.0905V19.9511C68.9724 21.2812 67.9628 21.5159 66.7979 21.5159C64.0798 21.5159 60.5074 21.2812 59.3425 21.2029V24.9584C61.8276 25.7408 63.4585 25.8973 67.8851 25.8973C70.7586 25.8973 73.7873 24.8802 73.7873 19.7946V18.5428C73.7873 16.1956 72.8554 12.6748 68.5841 12.6748H65.4777C63.8468 12.6748 63.4585 12.2836 63.4585 10.8753V10.1711C63.4585 8.52812 64.3127 8.44988 65.9436 8.44988C67.3415 8.44988 71.1469 8.52812 73.0107 8.76284V4.9291C71.1469 4.30318 68.0404 3.91198 64.4681 3.99022C61.2063 4.06846 58.7212 5.39853 58.7212 9.62347V11.5012H58.6435ZM75.4182 21.5159C75.4182 23.3936 76.6608 25.5844 79.9225 25.7408C82.1747 25.8191 83.7279 24.4108 83.9608 23.9413L84.8928 25.5844H88.6981V14.9438C88.6981 10.8753 86.3683 9.77995 82.7183 9.77995C79.8448 9.77995 77.9033 10.0147 75.8841 10.8753V13.7702C76.5831 13.6919 80.9321 13.4572 82.0193 13.4572C83.2619 13.4572 83.9608 13.6137 83.9608 15.1785V15.8044H80.1555C76.5054 15.8044 75.4182 17.9951 75.4182 20.1858V21.5159ZM80.1555 20.8117V20.3423C80.1555 19.7946 80.2331 19.0122 81.2427 18.8557L83.9608 18.621V20.9682C83.9608 20.9682 82.9513 22.0636 81.4757 22.0636C80.7768 22.0636 80.1555 22.0636 80.1555 20.8117ZM120.694 24.8802C121.937 25.5061 123.723 25.8191 124.966 25.8191C129.159 25.8191 129.936 22.4548 129.936 17.7604C129.936 12.6748 128.538 9.93643 124.966 9.93643C123.179 9.93643 121.704 10.7188 120.694 11.5795L119.918 10.0929H115.957C115.957 17.0562 115.957 24.0978 115.957 31.0611C115.957 31.6088 116.423 32 116.889 32H119.685C120.228 32 120.617 31.5306 120.617 31.0611C120.694 29.0269 120.694 26.9144 120.694 24.8802ZM120.694 21.7506V14.709C121.316 14.1614 122.325 13.9267 123.568 13.9267C124.655 13.9267 125.276 14.709 125.276 17.9951C125.276 21.6724 124.655 22.22 123.568 22.22C122.48 22.22 121.393 22.0636 120.694 21.7506ZM131.722 21.5159C131.722 23.3936 132.965 25.5844 136.226 25.7408C138.478 25.8191 140.032 24.4108 140.265 23.9413L141.197 25.5844H145.002V14.9438C145.002 10.8753 142.672 9.77995 139.022 9.77995C136.149 9.77995 134.207 10.0147 132.188 10.8753V13.7702C132.887 13.6919 137.236 13.4572 138.323 13.4572C139.566 13.4572 140.265 13.6137 140.265 15.1785V15.8044H136.459C132.809 15.8044 131.722 17.9951 131.722 20.1858V21.5159ZM136.459 20.8117V20.3423C136.459 19.7946 136.537 19.0122 137.547 18.8557L140.265 18.621V20.9682C140.265 20.9682 139.255 22.0636 137.78 22.0636C137.158 22.0636 136.459 22.0636 136.459 20.8117Z" fill="#299E63"/>
</svg>
